G04 Layer: BottomPasteMaskLayer*
G04 EasyEDA v6.5.22, 2023-03-24 00:04:05*
G04 1816f6d41fbb4fb68ab43b55433a14ba,7be1179030e74d40a97a3c751b95adb4,10*
G04 Gerber Generator version 0.2*
G04 Scale: 100 percent, Rotated: No, Reflected: No *
G04 Dimensions in millimeters *
G04 leading zeros omitted , absolute positions ,4 integer and 5 decimal *
%FSLAX45Y45*%
%MOMM*%

%AMMACRO1*21,1,$1,$2,0,0,$3*%
%ADD10MACRO1,2.8X1.1X-90.0000*%
%ADD11MACRO1,2.8X1.1X0.0000*%
%ADD12MACRO1,0.8X0.9X0.0000*%
%ADD13MACRO1,1X0.75X0.0000*%
%ADD14MACRO1,0.8X0.9X-90.0000*%
%ADD15MACRO1,0.8X0.9X90.0000*%
%ADD16R,2.3100X0.8400*%
%ADD17MACRO1,0.84X2.31X90.0000*%
%ADD18O,0.5684012X1.950212*%
%ADD19MACRO1,2.8X1.3X0.0000*%
%ADD20MACRO1,6.5X6X0.0000*%

%LPD*%
G36*
X14272412Y-5403900D02*
G01*
X14272412Y-5448909D01*
X14227403Y-5448909D01*
X14227403Y-5404916D01*
X14185392Y-5404408D01*
X14180413Y-5409387D01*
X14180413Y-5524398D01*
X14185392Y-5529427D01*
X14313407Y-5529427D01*
X14318386Y-5524398D01*
X14318386Y-5409387D01*
X14313407Y-5404408D01*
G37*
G36*
X14185392Y-5189423D02*
G01*
X14180413Y-5194401D01*
X14180413Y-5309412D01*
X14185392Y-5314391D01*
X14227403Y-5314391D01*
X14227403Y-5269890D01*
X14272412Y-5269890D01*
X14272412Y-5313883D01*
X14313407Y-5314391D01*
X14318386Y-5309412D01*
X14318386Y-5194401D01*
X14313407Y-5189423D01*
G37*
G36*
X14172692Y-4516272D02*
G01*
X14167713Y-4521301D01*
X14167713Y-4636312D01*
X14172692Y-4641291D01*
X14213687Y-4641799D01*
X14213687Y-4596790D01*
X14258696Y-4596790D01*
X14258696Y-4640783D01*
X14300707Y-4641291D01*
X14305686Y-4636312D01*
X14305686Y-4521301D01*
X14300707Y-4516272D01*
G37*
G36*
X14172692Y-4731308D02*
G01*
X14167713Y-4736287D01*
X14167713Y-4851298D01*
X14172692Y-4856276D01*
X14300707Y-4856276D01*
X14305686Y-4851298D01*
X14305686Y-4736287D01*
X14300707Y-4731308D01*
X14258696Y-4731308D01*
X14258696Y-4775809D01*
X14213687Y-4775809D01*
X14213687Y-4731816D01*
G37*
G36*
X12458801Y-9976713D02*
G01*
X12453772Y-9981692D01*
X12453772Y-10109708D01*
X12458801Y-10114686D01*
X12573812Y-10114686D01*
X12578791Y-10109708D01*
X12579299Y-10068712D01*
X12534290Y-10068712D01*
X12534290Y-10023703D01*
X12578283Y-10023703D01*
X12578791Y-9981692D01*
X12573812Y-9976713D01*
G37*
G36*
X12673787Y-9976713D02*
G01*
X12668808Y-9981692D01*
X12668808Y-10023703D01*
X12713309Y-10023703D01*
X12713309Y-10068712D01*
X12669316Y-10068712D01*
X12668808Y-10109708D01*
X12673787Y-10114686D01*
X12788798Y-10114686D01*
X12793776Y-10109708D01*
X12793776Y-9981692D01*
X12788798Y-9976713D01*
G37*
G36*
X12458801Y-9024213D02*
G01*
X12453772Y-9029192D01*
X12453772Y-9157208D01*
X12458801Y-9162186D01*
X12573812Y-9162186D01*
X12578791Y-9157208D01*
X12579299Y-9116212D01*
X12534290Y-9116212D01*
X12534290Y-9071203D01*
X12578283Y-9071203D01*
X12578791Y-9029192D01*
X12573812Y-9024213D01*
G37*
G36*
X12673787Y-9024213D02*
G01*
X12668808Y-9029192D01*
X12668808Y-9071203D01*
X12713309Y-9071203D01*
X12713309Y-9116212D01*
X12669316Y-9116212D01*
X12668808Y-9157208D01*
X12673787Y-9162186D01*
X12788798Y-9162186D01*
X12793776Y-9157208D01*
X12793776Y-9029192D01*
X12788798Y-9024213D01*
G37*
G36*
X13233501Y-5582513D02*
G01*
X13228472Y-5587492D01*
X13228472Y-5715508D01*
X13233501Y-5720486D01*
X13348512Y-5720486D01*
X13353491Y-5715508D01*
X13353999Y-5674512D01*
X13308990Y-5674512D01*
X13308990Y-5629503D01*
X13352983Y-5629503D01*
X13353491Y-5587492D01*
X13348512Y-5582513D01*
G37*
G36*
X13448487Y-5582513D02*
G01*
X13443508Y-5587492D01*
X13443508Y-5629503D01*
X13488009Y-5629503D01*
X13488009Y-5674512D01*
X13444016Y-5674512D01*
X13443508Y-5715508D01*
X13448487Y-5720486D01*
X13563498Y-5720486D01*
X13568476Y-5715508D01*
X13568476Y-5587492D01*
X13563498Y-5582513D01*
G37*
G36*
X13358012Y-4718100D02*
G01*
X13358012Y-4763109D01*
X13313003Y-4763109D01*
X13313003Y-4719116D01*
X13270992Y-4718608D01*
X13266013Y-4723587D01*
X13266013Y-4838598D01*
X13270992Y-4843627D01*
X13399007Y-4843627D01*
X13403986Y-4838598D01*
X13403986Y-4723587D01*
X13399007Y-4718608D01*
G37*
G36*
X13270992Y-4503623D02*
G01*
X13266013Y-4508601D01*
X13266013Y-4623612D01*
X13270992Y-4628591D01*
X13313003Y-4628591D01*
X13313003Y-4584090D01*
X13358012Y-4584090D01*
X13358012Y-4628083D01*
X13399007Y-4628591D01*
X13403986Y-4623612D01*
X13403986Y-4508601D01*
X13399007Y-4503623D01*
G37*
G36*
X14259712Y-7524800D02*
G01*
X14259712Y-7569809D01*
X14214703Y-7569809D01*
X14214703Y-7525816D01*
X14172692Y-7525308D01*
X14167713Y-7530287D01*
X14167713Y-7645298D01*
X14172692Y-7650327D01*
X14300707Y-7650327D01*
X14305686Y-7645298D01*
X14305686Y-7530287D01*
X14300707Y-7525308D01*
G37*
G36*
X14172692Y-7310323D02*
G01*
X14167713Y-7315301D01*
X14167713Y-7430312D01*
X14172692Y-7435291D01*
X14214703Y-7435291D01*
X14214703Y-7390790D01*
X14259712Y-7390790D01*
X14259712Y-7434783D01*
X14300707Y-7435291D01*
X14305686Y-7430312D01*
X14305686Y-7315301D01*
X14300707Y-7310323D01*
G37*
G36*
X13601192Y-7322972D02*
G01*
X13596213Y-7328001D01*
X13596213Y-7443012D01*
X13601192Y-7447991D01*
X13642187Y-7448499D01*
X13642187Y-7403490D01*
X13687196Y-7403490D01*
X13687196Y-7447483D01*
X13729207Y-7447991D01*
X13734186Y-7443012D01*
X13734186Y-7328001D01*
X13729207Y-7322972D01*
G37*
G36*
X13601192Y-7538008D02*
G01*
X13596213Y-7542987D01*
X13596213Y-7657998D01*
X13601192Y-7662976D01*
X13729207Y-7662976D01*
X13734186Y-7657998D01*
X13734186Y-7542987D01*
X13729207Y-7538008D01*
X13687196Y-7538008D01*
X13687196Y-7582509D01*
X13642187Y-7582509D01*
X13642187Y-7538516D01*
G37*
G36*
X13905992Y-7322972D02*
G01*
X13901013Y-7328001D01*
X13901013Y-7443012D01*
X13905992Y-7447991D01*
X13946987Y-7448499D01*
X13946987Y-7403490D01*
X13991996Y-7403490D01*
X13991996Y-7447483D01*
X14034007Y-7447991D01*
X14038986Y-7443012D01*
X14038986Y-7328001D01*
X14034007Y-7322972D01*
G37*
G36*
X13905992Y-7538008D02*
G01*
X13901013Y-7542987D01*
X13901013Y-7657998D01*
X13905992Y-7662976D01*
X14034007Y-7662976D01*
X14038986Y-7657998D01*
X14038986Y-7542987D01*
X14034007Y-7538008D01*
X13991996Y-7538008D01*
X13991996Y-7582509D01*
X13946987Y-7582509D01*
X13946987Y-7538516D01*
G37*
D10*
G01*
X12763498Y-4577900D03*
G01*
X12763498Y-4997899D03*
D11*
G01*
X12705900Y-7251701D03*
G01*
X13125899Y-7251701D03*
G01*
X12909999Y-7962898D03*
G01*
X12490000Y-7962898D03*
D12*
G01*
X12693799Y-10350500D03*
G01*
X12553800Y-10350500D03*
G01*
X12693799Y-9423400D03*
G01*
X12553800Y-9423400D03*
D13*
G01*
X12531944Y-8788400D03*
G01*
X12766450Y-8788400D03*
G01*
X12741055Y-9690100D03*
G01*
X12506549Y-9690100D03*
D12*
G01*
X13315800Y-5372100D03*
G01*
X13455799Y-5372100D03*
D14*
G01*
X13741400Y-5632599D03*
G01*
X13741400Y-5492600D03*
D15*
G01*
X14020800Y-5518000D03*
G01*
X14020800Y-5657999D03*
D12*
G01*
X13862199Y-5918200D03*
G01*
X13722200Y-5918200D03*
D16*
G01*
X12639395Y-6578600D03*
D17*
G01*
X12938400Y-6578600D03*
D13*
G01*
X13972955Y-7150100D03*
G01*
X13738449Y-7150100D03*
D18*
G01*
X13601700Y-4428489D03*
G01*
X13728700Y-4428489D03*
G01*
X13855700Y-4428489D03*
G01*
X13982700Y-4428489D03*
G01*
X13601700Y-4969510D03*
G01*
X13728700Y-4969510D03*
G01*
X13855700Y-4969510D03*
G01*
X13982700Y-4969510D03*
D19*
G01*
X13336013Y-6755079D03*
G01*
X13336013Y-6300520D03*
D20*
G01*
X13994396Y-6527800D03*
M02*
