G04 Layer: TopSilkscreenLayer*
G04 EasyEDA v6.5.22, 2023-03-24 00:04:05*
G04 1816f6d41fbb4fb68ab43b55433a14ba,7be1179030e74d40a97a3c751b95adb4,10*
G04 Gerber Generator version 0.2*
G04 Scale: 100 percent, Rotated: No, Reflected: No *
G04 Dimensions in millimeters *
G04 leading zeros omitted , absolute positions ,4 integer and 5 decimal *
%FSLAX45Y45*%
%MOMM*%

%ADD10C,0.2032*%
%ADD11C,0.2540*%

%LPD*%
D10*
X13720572Y-3973321D02*
G01*
X13702029Y-3982465D01*
X13683741Y-4001007D01*
X13674343Y-4019550D01*
X13665200Y-4047236D01*
X13665200Y-4093210D01*
X13674343Y-4121150D01*
X13683741Y-4139437D01*
X13702029Y-4157979D01*
X13720572Y-4167123D01*
X13757656Y-4167123D01*
X13775943Y-4157979D01*
X13794486Y-4139437D01*
X13803629Y-4121150D01*
X13813027Y-4093210D01*
X13813027Y-4047236D01*
X13803629Y-4019550D01*
X13794486Y-4001007D01*
X13775943Y-3982465D01*
X13757656Y-3973321D01*
X13720572Y-3973321D01*
X13873988Y-3973321D02*
G01*
X13873988Y-4111752D01*
X13883131Y-4139437D01*
X13901674Y-4157979D01*
X13929359Y-4167123D01*
X13947902Y-4167123D01*
X13975588Y-4157979D01*
X13994129Y-4139437D01*
X14003274Y-4111752D01*
X14003274Y-3973321D01*
X14128750Y-3973321D02*
G01*
X14128750Y-4167123D01*
X14064234Y-3973321D02*
G01*
X14193520Y-3973321D01*
G36*
X12585700Y-2946400D02*
G01*
X12585700Y-4064000D01*
X13398500Y-4064000D01*
X13677900Y-3797300D01*
X13677900Y-2946400D01*
G37*
D11*
X-6826272Y-831824D02*
G01*
X-6826272Y-11944324D01*
X12084027Y-11944324D01*
X12084027Y-831824D01*
X-6826272Y-831824D01*
X12496800Y-2705100D02*
G01*
X13639800Y-2705100D01*
X13881100Y-2946400D01*
X13881100Y-3784600D01*
X14160500Y-3784600D01*
X14338300Y-3962400D01*
X14338300Y-4305300D01*
X12458700Y-4305300D01*
X12458700Y-2705100D01*
X12496800Y-2705100D01*
X12084027Y-11810779D02*
G01*
X11969727Y-11810779D01*
X11969727Y-11927619D02*
G01*
X11969727Y-11813319D01*
X-6705600Y-11938000D02*
G01*
X-6705600Y-11823700D01*
X-6711950Y-11823700D02*
G01*
X-6826250Y-11823700D01*
X-6470672Y-11741124D02*
G01*
X-6470672Y-11944324D01*
X-6826250Y-952500D02*
G01*
X-6711950Y-952500D01*
X-6711972Y-945675D02*
G01*
X-6711972Y-831375D01*
X11963400Y-946150D02*
G01*
X11963400Y-831850D01*
X12084050Y-952500D02*
G01*
X11969750Y-952500D01*
X-6826272Y-11741124D02*
G01*
X-6470672Y-11741124D01*
M02*
