G04 Layer: BottomSolderMaskLayer*
G04 EasyEDA v6.5.22, 2023-03-24 00:04:05*
G04 1816f6d41fbb4fb68ab43b55433a14ba,7be1179030e74d40a97a3c751b95adb4,10*
G04 Gerber Generator version 0.2*
G04 Scale: 100 percent, Rotated: No, Reflected: No *
G04 Dimensions in millimeters *
G04 leading zeros omitted , absolute positions ,4 integer and 5 decimal *
%FSLAX45Y45*%
%MOMM*%

%AMMACRO1*1,1,$1,$2,$3*1,1,$1,$4,$5*1,1,$1,0-$2,0-$3*1,1,$1,0-$4,0-$5*20,1,$1,$2,$3,$4,$5,0*20,1,$1,$4,$5,0-$2,0-$3,0*20,1,$1,0-$2,0-$3,0-$4,0-$5,0*20,1,$1,0-$4,0-$5,$2,$3,0*4,1,4,$2,$3,$4,$5,0-$2,0-$3,0-$4,0-$5,$2,$3,0*%
%ADD10MACRO1,0.1016X-0.55X1.4X-0.55X-1.4*%
%ADD11MACRO1,0.1016X-1.4X-0.55X1.4X-0.55*%
%ADD12MACRO1,0.1016X1.4X0.55X-1.4X0.55*%
%ADD13MACRO1,0.1016X-0.4X-0.45X0.4X-0.45*%
%ADD14MACRO1,0.1016X0.5X0.375X-0.5X0.375*%
%ADD15MACRO1,0.1016X-0.5X-0.375X0.5X-0.375*%
%ADD16C,1.7653*%
%ADD17MACRO1,0.1016X-0.8318X-0.8319X0.8318X-0.8319*%
%ADD18MACRO1,0.1016X-0.6885X-0.5663X0.6885X-0.5663*%
%ADD19MACRO1,0.1016X-0.6885X0.5663X0.6885X0.5663*%
%ADD20MACRO1,0.1016X0.6885X-0.5663X-0.6885X-0.5663*%
%ADD21MACRO1,0.1016X0.6885X0.5663X-0.6885X0.5663*%
%ADD22MACRO1,0.1016X-0.5663X0.6885X-0.5663X-0.6885*%
%ADD23MACRO1,0.1016X0.5663X0.6885X0.5663X-0.6885*%
%ADD24MACRO1,0.1016X0.4X0.45X-0.4X0.45*%
%ADD25MACRO1,0.1016X-0.45X0.4X-0.45X-0.4*%
%ADD26MACRO1,0.1016X0.45X-0.4X0.45X0.4*%
%ADD27MACRO1,0.1016X1.155X-0.42X1.155X0.42*%
%ADD28MACRO1,0.1016X-1.155X-0.42X-1.155X0.42*%
%ADD29O,0.6700012X2.051812*%
%ADD30MACRO1,0.1016X-1.4X-0.65X1.4X-0.65*%
%ADD31MACRO1,0.1016X-3.25X-3X3.25X-3*%

%LPD*%
G36*
X13500100Y-1295400D02*
G01*
X13500100Y-2057400D01*
X13741400Y-2057400D01*
X13754100Y-2044700D01*
X13754100Y-1308100D01*
X13741400Y-1295400D01*
G37*
G36*
X13081000Y-1308100D02*
G01*
X13081000Y-2070100D01*
X13322300Y-2070100D01*
X13335000Y-2057400D01*
X13335000Y-1320800D01*
X13322300Y-1308100D01*
G37*
G36*
X13970000Y-1308100D02*
G01*
X13970000Y-3327400D01*
X14224000Y-3327400D01*
X14224000Y-1320800D01*
X14211300Y-1308100D01*
G37*
G36*
X12712700Y-5435600D02*
G01*
X12700000Y-5448300D01*
X12700000Y-6184900D01*
X12712700Y-6197600D01*
X12954000Y-6197600D01*
X12954000Y-5435600D01*
G37*
D10*
G01*
X12763498Y-4577900D03*
G01*
X12763498Y-4997899D03*
D11*
G01*
X12705900Y-7251701D03*
G01*
X13125899Y-7251701D03*
D12*
G01*
X12909999Y-7962898D03*
G01*
X12490000Y-7962898D03*
D13*
G01*
X12693799Y-10350500D03*
G01*
X12553800Y-10350500D03*
G01*
X12693799Y-9423400D03*
G01*
X12553800Y-9423400D03*
D14*
G01*
X12531944Y-8788400D03*
G01*
X12766450Y-8788400D03*
D15*
G01*
X12741055Y-9690100D03*
G01*
X12506549Y-9690100D03*
D16*
G01*
X13347700Y-8890000D03*
G01*
X13093700Y-8890000D03*
G01*
X13347700Y-9398000D03*
G01*
X13093700Y-9398000D03*
G01*
X13347700Y-9652000D03*
G01*
X13093700Y-9652000D03*
G01*
X13347700Y-9906000D03*
G01*
X13093700Y-9906000D03*
G01*
X13347700Y-10160000D03*
G01*
X13093700Y-10160000D03*
G01*
X13347700Y-8636000D03*
G01*
X13093700Y-8636000D03*
G01*
X13347700Y-9144000D03*
G01*
X13093700Y-9144000D03*
G01*
X13347700Y-10414000D03*
D17*
G01*
X13093700Y-10414000D03*
D18*
G01*
X14249400Y-5259395D03*
D19*
G01*
X14249400Y-5459404D03*
D20*
G01*
X14236700Y-4586295D03*
D21*
G01*
X14236700Y-4786304D03*
D22*
G01*
X12720426Y-10045700D03*
D23*
G01*
X12527173Y-10045700D03*
D22*
G01*
X12720426Y-9093200D03*
D23*
G01*
X12527173Y-9093200D03*
D24*
G01*
X13315800Y-5372100D03*
G01*
X13455799Y-5372100D03*
D25*
G01*
X13741400Y-5632599D03*
G01*
X13741400Y-5492600D03*
D26*
G01*
X14020800Y-5518000D03*
G01*
X14020800Y-5657999D03*
D22*
G01*
X13498504Y-5651500D03*
D23*
G01*
X13298495Y-5651500D03*
D18*
G01*
X13335000Y-4573595D03*
D19*
G01*
X13335000Y-4773604D03*
D13*
G01*
X13862199Y-5918200D03*
G01*
X13722200Y-5918200D03*
D27*
G01*
X12639399Y-6578600D03*
D28*
G01*
X12938400Y-6578600D03*
D15*
G01*
X13972955Y-7150100D03*
G01*
X13738449Y-7150100D03*
D18*
G01*
X14236700Y-7380295D03*
D19*
G01*
X14236700Y-7580304D03*
D21*
G01*
X13665200Y-7593004D03*
D20*
G01*
X13665200Y-7392995D03*
D21*
G01*
X13970000Y-7593004D03*
D20*
G01*
X13970000Y-7392995D03*
D29*
G01*
X13601700Y-4428489D03*
G01*
X13728700Y-4428489D03*
G01*
X13855700Y-4428489D03*
G01*
X13982700Y-4428489D03*
G01*
X13601700Y-4969510D03*
G01*
X13728700Y-4969510D03*
G01*
X13855700Y-4969510D03*
G01*
X13982700Y-4969510D03*
D30*
G01*
X13336013Y-6755079D03*
G01*
X13336013Y-6300520D03*
D31*
G01*
X13994396Y-6527800D03*
M02*
